# xmcd
#
# Track frame offsets:
# 150
# 20451
# 38433
# 56034
# 75261
# 95829
# 122074
# 139425
# 163579
# 183633
# 203067
# 223545
# 246313
# 266217
#
# Disc length: 3871 seconds
#
#
# Revision: 0
# Processed by: cddbd v1.5.2PL0 Copyright (c) Steve Scherf et al.
# Submitted via: FreeRIP 2.951 
#
DISCID=ca0f1d0e
DTITLE=Dixie Chicks - The Long Way Around
DYEAR=1900
DGENRE=Country
TTITLE0=The Long Way Around
TTITLE1=Easy Silence
TTITLE2=Not Ready to Make Nice
TTITLE3=Everybody Knows
TTITLE4=Bitter End
TTITLE5=Lullaby
TTITLE6=Lubbock or Leave it
TTITLE7=Silent House
TTITLE8=Favorite Year
TTITLE9=Voice Inside My Head
TTITLE10=I Like It
TTITLE11=Baby Hold On
TTITLE12=So Hard
TTITLE13=I Hope
EXTD=
EXTT0=
EXTT1=
EXTT2=
EXTT3=
EXTT4=
EXTT5=
EXTT6=
EXTT7=
EXTT8=
EXTT9=
EXTT10=
EXTT11=
EXTT12=
EXTT13=
PLAYORDER=
